# xmcd
#
# Track frame offsets:
# 150
# 12035
# 25501
# 40180
# 60079
# 72527
# 84865
# 96073
# 108817
# 119883
# 138320
# 147632
#
# Disc length: 2105 seconds
#
#
# Revision: 0
# Processed by: cddbd v1.5PL3 Copyright (c) Steve Scherf et al.
# Submitted via: FreeRIP 2.60 
#
DISCID=9708370c
DTITLE=Silverado Bluegrass Band - All Doors Will Open
DYEAR=2002
DGENRE=Bluegrass
TTITLE0=Preaching Up A Storm
TTITLE1=Another Night
TTITLE2=Sin City
TTITLE3=All Doors Will Open In San Juan
TTITLE4=Heart of a Little Mountain Girl
TTITLE5=Hurting When You Go
TTITLE6=Jack Rabbit at Kennywood Park
TTITLE7=I Wonder Where You Are Tonight
TTITLE8=How Mountain Girls Can Love
TTITLE9=Alvera
TTITLE10=Aint Gonna Work Tomorrow
TTITLE11=Who'll Sing For Me
EXTD=
EXTT0=
EXTT1=
EXTT2=
EXTT3=
EXTT4=
EXTT5=
EXTT6=
EXTT7=
EXTT8=
EXTT9=
EXTT10=
EXTT11=
PLAYORDER=
